<svg width="135" height="40" viewBox="0 0 135 40" fill="none" xmlns="http://www.w3.org/2000/svg">
<rect width="135" height="40" rx="5" fill="black"/>
<text x="45" y="13" fill="white" font-family="Arial" font-size="8">Download on the</text>
<text x="45" y="28" fill="white" font-family="Arial" font-size="16" font-weight="bold">App Store</text>
<path d="M25.77 20.14c-.03-3.24 2.64-4.8 2.76-4.87-1.5-2.2-3.84-2.5-4.67-2.53-1.99-.2-3.88 1.17-4.89 1.17-1.01 0-2.57-1.14-4.23-1.11-2.17.03-4.18 1.26-5.3 3.21-2.26 3.92-.58 9.73 1.62 12.91 1.08 1.56 2.37 3.31 4.06 3.25 1.63-.07 2.25-1.06 4.22-1.06 1.97 0 2.54 1.06 4.23 1.03 1.75-.03 2.89-1.58 3.97-3.15 1.25-1.81 1.76-3.57 1.79-3.66-.04-.01-3.43-1.32-3.46-5.23z" fill="white"/>
<path d="M22.04 10.56c.9-1.09 1.51-2.61 1.34-4.12-1.3.05-2.87.87-3.8 1.96-.83.96-1.56 2.5-1.37 3.97 1.45.11 2.93-.74 3.83-1.81z" fill="white"/>
</svg>
