<svg width="20" height="20" viewBox="0 0 20 20" fill="none" xmlns="http://www.w3.org/2000/svg">
<path d="M17.0507 2.89875C15.1797 1.02375 12.6914 0 10.0367 0C4.54766 0 0.0773438 4.47031 0.0773438 9.95937C0.0773438 11.7078 0.542969 13.4141 1.42422 14.9141L0 20L5.22109 18.6016C6.66797 19.4078 8.33516 19.8359 10.0328 19.8359H10.0367C15.5219 19.8359 20 15.3656 20 9.87656C20 7.22188 18.9219 4.77344 17.0507 2.89875ZM10.0367 18.1641C8.51953 18.1641 7.03516 17.7547 5.74609 16.9844L5.44922 16.8047L2.35547 17.5859L3.15234 14.5547L2.95312 14.2461C2.10938 12.9102 1.65625 11.4609 1.65625 9.95937C1.65625 5.33594 5.41328 1.57891 10.0406 1.57891C12.2852 1.57891 14.3867 2.45234 15.9648 4.03438C17.543 5.61641 18.4258 7.71797 18.4219 9.96266C18.4219 14.5898 14.6602 18.1641 10.0367 18.1641ZM14.6406 12.0234C14.3867 11.8969 13.1484 11.2891 12.9141 11.2031C12.6797 11.1133 12.5078 11.0703 12.3359 11.3281C12.1641 11.5859 11.6797 12.15 11.5273 12.3258C11.3789 12.4977 11.2266 12.5195 10.9727 12.393C10.7188 12.2664 9.91797 12.0078 8.96484 11.1562C8.22266 10.4922 7.72266 9.67656 7.57031 9.41875C7.42188 9.16094 7.55469 9.02344 7.68125 8.89687C7.79375 8.78437 7.93516 8.60156 8.06172 8.44922C8.18828 8.29687 8.23516 8.18437 8.32109 8.01172C8.41094 7.83906 8.36406 7.68672 8.30078 7.56016C8.23516 7.43359 7.73516 6.19531 7.52344 5.68359C7.31641 5.18359 7.10547 5.25 6.94922 5.24219C6.80078 5.23438 6.62891 5.23438 6.45703 5.23438C6.28516 5.23438 6.01172 5.29766 5.77734 5.55547C5.54297 5.81328 4.89453 6.42109 4.89453 7.65937C4.89453 8.89766 5.79688 10.0977 5.92344 10.2695C6.05 10.4414 7.72266 12.9727 10.2539 14.0625C10.8555 14.3281 11.3242 14.4883 11.6914 14.6094C12.293 14.8047 12.8398 14.7773 13.2734 14.7109C13.7578 14.6367 14.7617 14.0859 14.9734 13.4844C15.1852 12.8828 15.1852 12.3711 15.1219 12.2656C15.0586 12.1602 14.8945 12.1008 14.6406 12.0234Z" fill="white"/>
</svg>
