<svg width="67" height="67" viewBox="0 0 67 67" fill="none" xmlns="http://www.w3.org/2000/svg">
<path fill-rule="evenodd" clip-rule="evenodd" d="M24.4999 45.8507V30.8752C24.4999 30.7044 24.6712 30.5336 24.8425 30.5336H30.6735C30.8448 30.5336 31.0161 30.7044 31.0161 30.8752V45.8507C31.0161 46.0817 30.8079 46.2257 30.5694 46.2257H24.9467C24.7082 46.2257 24.4999 46.0817 24.4999 45.8507ZM36.6859 0H36.8135C37.1091 0.00334872 37.3644 0.0334872 37.7003 0.0334872C37.8716 0.0334872 38.0462 0.0301385 38.2175 0.0334872C38.4157 0.0368359 38.4762 0.0703231 38.6945 0.0703231C38.8624 0.0703231 39.0438 0.0636257 39.2117 0.0669744C39.3898 0.0736718 39.4469 0.10381 39.6551 0.10381C40.0011 0.10381 40.3 0.117205 40.6493 0.137298L41.573 0.207621C42.0197 0.210969 42.9569 0.301385 43.4204 0.348267C45.7179 0.589375 48.0623 0.887411 50.2557 1.53371C50.5311 1.61408 50.7763 1.67436 51.0517 1.76478C51.7974 2.00588 52.5397 2.25369 53.2585 2.53833C53.7422 2.72921 54.1822 2.96362 54.6591 3.15784C55.1092 3.34202 55.5291 3.61662 55.9557 3.85103C56.399 4.09214 56.7853 4.35334 57.1984 4.62793L58.9115 5.92723C59.375 6.2889 60.5506 7.41407 60.9335 7.90968L61.3903 8.44547C62.3006 9.59073 63.0932 10.7695 63.7617 12.0989C64.4637 13.4953 64.9977 14.9453 65.4377 16.4456C66.1229 18.783 66.3648 20.8257 66.6671 23.22L67.0198 29.3649C67.0164 29.8438 66.9727 30.3963 67.0231 30.8652C67.0937 31.488 67.0735 35.4094 67.0198 36.0691C66.9794 36.5613 67.0198 37.1072 67.0198 37.6061C67.0198 37.8171 66.9828 37.8707 66.9828 38.0816L66.9492 39.5886C66.9492 39.7995 66.9123 39.8531 66.9123 40.0641C66.9123 40.707 66.8182 42.1637 66.7376 42.9306L66.4286 45.6665C66.1397 47.6858 65.74 49.5945 65.1287 51.5134C64.4469 53.6498 63.4224 55.8031 62.0722 57.5946C61.9915 57.7051 61.9412 57.7822 61.8572 57.8927C61.35 58.5591 60.7991 59.2087 60.2046 59.8014C59.6912 60.3172 59.152 60.8067 58.589 61.2682L58.0314 61.7035C57.541 62.0685 57.0339 62.4335 56.5032 62.745L55.5425 63.2908C55.4149 63.3578 55.3477 63.4047 55.21 63.475C53.5877 64.2753 52.9394 64.503 51.2029 65.0891C50.6957 65.2599 50.165 65.3871 49.6175 65.5244C44.5187 66.7969 38.2881 66.8706 32.3126 66.8706C26.9082 66.8706 21.6348 66.586 17.3187 65.511C15.6426 65.0924 13.2679 64.3289 11.6993 63.4214C11.5952 63.3611 11.4944 63.3243 11.3802 63.2607C9.88217 62.4268 9.39849 62.0216 8.18594 61.0773C8.11541 61.0237 8.11877 61.0304 8.05495 60.9701L7.5041 60.4913C6.93645 59.9488 6.23781 59.279 5.76421 58.6696L4.86403 57.5176C3.9605 56.3221 3.26857 54.9659 2.65726 53.5996L2.35832 52.8729C2.26427 52.6117 2.1803 52.4075 2.09297 52.1463C2.01236 51.9018 1.90152 51.6406 1.83098 51.3828C1.75709 51.1115 1.66304 50.8503 1.5925 50.5958C1.44135 50.0567 1.31036 49.5376 1.17936 48.9884C0.914011 47.8599 0.725915 46.7247 0.554613 45.5091C0.450489 44.7757 0.181779 42.5287 0.178421 41.8155C0.175062 41.062 0.0642193 40.1545 0.0407073 39.3876C0.0373484 39.2202 0.0440662 39.0427 0.0440662 38.8719C0.0440662 38.661 0.00711888 38.6074 0.00711888 38.3964L-0.0264699 34.8736C-0.0264699 34.5354 -0.0600586 34.2842 -0.0600586 33.9158C-0.0600586 32.5462 -0.0197521 31.2436 -0.0264699 29.8471C-0.0264699 29.6295 0.00711863 29.5692 0.0104775 29.3716C0.0171952 28.7052 0.0575016 26.5118 0.138114 25.9425C0.201933 25.4838 0.185138 24.603 0.26911 24.0237C0.316134 23.7123 0.326211 23.3908 0.35644 23.0827C0.608355 20.4908 1.0618 17.8587 1.87465 15.4343C2.37512 13.9374 2.97299 12.541 3.73881 11.1713L4.51807 9.92896C4.93121 9.31279 5.3813 8.75021 5.84818 8.17757L6.55354 7.37723C6.86927 7.01892 7.26898 6.70079 7.59814 6.36927C8.34045 5.61915 9.97622 4.48059 10.8294 3.98163C13.7986 2.24364 16.6133 1.46674 19.952 0.83718C20.9731 0.642954 22.9817 0.368359 24.0196 0.311431C24.5033 0.284641 24.9601 0.210969 25.4606 0.207621C25.9308 0.204272 26.7235 0.10381 27.3818 0.10381C27.6002 0.10381 27.6606 0.0703231 27.8588 0.0669744C28.0301 0.0636257 28.2048 0.0703231 28.3761 0.0703231C28.5742 0.0669744 28.6347 0.0334872 28.853 0.0334872L36.6859 0V0ZM47.1689 45.8172V21.0969C47.1689 20.8625 47.3268 20.6516 47.5451 20.6516H53.067C53.2854 20.6516 53.4432 20.8625 53.4432 21.0969V45.8172C53.4432 46.0616 53.2216 46.2291 52.9629 46.2291H47.6458C47.3872 46.2291 47.1655 46.0616 47.1655 45.8172H47.1689ZM19.0821 46.2291H13.7314C13.4929 46.2291 13.2847 46.0851 13.2847 45.854V21.03C13.2847 20.829 13.4627 20.6549 13.6609 20.6549C19.3978 20.6549 25.2187 20.6884 30.9456 20.6549L32.0775 20.6884C32.2623 20.6917 32.2791 20.7185 32.4537 20.7252L33.9014 20.8223C34.1634 20.8491 34.375 20.8692 34.6168 20.896C35.0636 20.9462 35.5472 21.0199 35.9738 21.117C38.6844 21.7231 40.2429 22.5637 41.2808 25.1958C42.1474 27.3892 42.2314 31.0929 42.2314 33.6178V45.8239C42.2314 46.0683 42.0097 46.2358 41.751 46.2358H36.434C35.8294 46.2358 35.9536 45.623 35.9536 45.0403V33.2796C35.9536 31.5952 35.994 28.9765 34.9292 27.5633C33.8779 26.1669 31.5636 25.9626 29.7801 25.9626H20.0058C19.4751 25.9626 19.5255 26.4649 19.5255 26.7831C19.5288 28.8593 19.5691 45.7971 19.5087 45.9813C19.4852 46.0516 19.4079 46.1387 19.3542 46.1688C19.2903 46.2056 19.1862 46.2358 19.0787 46.2358L19.0821 46.2291Z" fill="#FF6900"/>
</svg>
